<svg width="34" height="35" viewBox="0 0 34 35" fill="none" xmlns="http://www.w3.org/2000/svg">
<g id="solar:water-bold">
<path id="Vector" fill-rule="evenodd" clip-rule="evenodd" d="M7.02846 9.18125C7.9867 7.77166 9.99069 7.82443 11.0031 9.04237C12.3669 10.6825 14.2889 12.2921 17.3303 12.2921C20.4244 12.2921 22.3173 11.0005 23.6061 9.38123C24.6074 8.12162 26.7433 7.91887 27.7932 9.41317C28.6515 10.6353 29.5903 11.6074 31.4429 12.0199C31.706 12.0858 31.933 12.2518 32.0756 12.4825C32.2183 12.7132 32.2653 12.9904 32.2067 13.2553C32.1481 13.5201 31.9885 13.7516 31.7618 13.9006C31.5351 14.0496 31.2593 14.1043 30.9929 14.053C28.4362 13.4864 27.1058 12.0588 26.0878 10.6103C26.0212 10.5145 25.9003 10.4436 25.7184 10.4478C25.6263 10.4488 25.5355 10.4698 25.4523 10.5094C25.3691 10.549 25.2954 10.6061 25.2365 10.6769C23.6033 12.7295 21.1355 14.3752 17.3303 14.3752C13.4098 14.3752 10.9559 12.2476 9.40046 10.3728C9.35624 10.32 9.30069 10.2779 9.23794 10.2495C9.17518 10.2211 9.10684 10.2073 9.038 10.2089C8.98186 10.2073 8.92621 10.2196 8.87603 10.2449C8.82585 10.2701 8.78272 10.3074 8.75052 10.3534C7.71451 11.8768 6.38546 13.4503 3.66766 14.053C3.53262 14.0869 3.39217 14.0933 3.25461 14.0719C3.11705 14.0505 2.98517 14.0018 2.86676 13.9286C2.74836 13.8554 2.64583 13.7592 2.56523 13.6457C2.48464 13.5322 2.42761 13.4037 2.39753 13.2678C2.36745 13.1318 2.36492 12.9913 2.3901 12.8543C2.41527 12.7174 2.46763 12.5869 2.54409 12.4706C2.62055 12.3543 2.71956 12.2545 2.83525 12.177C2.95095 12.0996 3.081 12.0462 3.2177 12.0199C5.17863 11.5838 6.11743 10.52 7.02846 9.18125ZM7.02846 16.1251C7.9867 14.7155 9.99069 14.7682 11.0031 15.9862C12.3669 17.6263 14.2889 19.2359 17.3303 19.2359C20.4244 19.2359 22.3173 17.9443 23.6061 16.325C24.6074 15.0654 26.7433 14.8627 27.7932 16.357C28.6515 17.5791 29.5903 18.5512 31.4429 18.9637C31.706 19.0296 31.933 19.1956 32.0756 19.4263C32.2183 19.657 32.2653 19.9342 32.2067 20.1991C32.1481 20.4639 31.9885 20.6954 31.7618 20.8444C31.5351 20.9934 31.2593 21.0481 30.9929 20.9968C28.4362 20.4302 27.1058 19.0026 26.0878 17.5541C26.0212 17.4583 25.9003 17.3874 25.7184 17.3916C25.6263 17.3926 25.5355 17.4136 25.4523 17.4532C25.3691 17.4928 25.2954 17.5499 25.2365 17.6207C23.6033 19.6747 21.1355 21.319 17.3303 21.319C13.4098 21.319 10.9559 19.19 9.40046 17.3166C9.35624 17.2638 9.30069 17.2217 9.23794 17.1933C9.17518 17.1649 9.10684 17.1511 9.038 17.1527C8.98186 17.1511 8.92621 17.1635 8.87603 17.1887C8.82585 17.2139 8.78272 17.2512 8.75052 17.2972C7.71451 18.8206 6.38546 20.3941 3.66766 20.9968C3.39786 21.0565 3.11541 21.0065 2.88245 20.858C2.64948 20.7094 2.48508 20.4743 2.42541 20.2045C2.36574 19.9347 2.41569 19.6523 2.56428 19.4193C2.71286 19.1864 2.9479 19.022 3.2177 18.9623C5.17863 18.529 6.11743 17.4638 7.02846 16.1251ZM7.02846 23.0689C7.9867 21.6593 9.99069 21.712 11.0031 22.93C12.3669 24.5701 14.2889 26.1797 17.3303 26.1797C20.4244 26.1797 22.3173 24.8881 23.6061 23.2688C24.6074 22.0092 26.7433 21.8065 27.7932 23.3008C28.6515 24.5229 29.5903 25.495 31.4429 25.9075C31.706 25.9734 31.933 26.1394 32.0756 26.3701C32.2183 26.6008 32.2653 26.8781 32.2067 27.1429C32.1481 27.4077 31.9885 27.6392 31.7618 27.7882C31.5351 27.9372 31.2593 27.9919 30.9929 27.9406C28.4362 27.374 27.1058 25.9464 26.0878 24.4979C26.0212 24.4021 25.9003 24.3312 25.7184 24.3354C25.6263 24.3364 25.5355 24.3574 25.4523 24.397C25.3691 24.4366 25.2954 24.4937 25.2365 24.5646C23.6033 26.6185 21.1355 28.2628 17.3303 28.2628C13.4098 28.2628 10.9559 26.1352 9.40046 24.2604C9.35624 24.2076 9.30069 24.1655 9.23794 24.1371C9.17518 24.1087 9.10684 24.0949 9.038 24.0965C8.98186 24.0949 8.92621 24.1073 8.87603 24.1325C8.82585 24.1577 8.78272 24.195 8.75052 24.241C7.71451 25.7644 6.38546 27.3379 3.66766 27.9406C3.39786 28.0003 3.11541 27.9503 2.88245 27.8018C2.64948 27.6532 2.48508 27.4181 2.42541 27.1483C2.36574 26.8785 2.41569 26.5961 2.56428 26.3631C2.71286 26.1302 2.9479 25.9658 3.2177 25.9061C5.17863 25.4728 6.11743 24.4076 7.02846 23.0689Z" fill="#4983F6"/>
</g>
</svg>
