<svg width="34" height="35" viewBox="0 0 34 35" fill="none" xmlns="http://www.w3.org/2000/svg">
<g id="solar:temperature-linear">
<g id="Group">
<path id="Vector" d="M16.6698 31.3875C18.2523 31.3878 19.7958 30.8965 21.0871 29.9816C22.3783 29.0667 23.3535 27.7733 23.8778 26.2801C24.4022 24.787 24.4498 23.1679 24.0141 21.6465C23.5784 20.1251 22.6809 18.7766 21.4457 17.7874C21.261 17.6468 21.1103 17.4665 21.0048 17.2597C20.8992 17.053 20.8416 16.8251 20.836 16.5931V7.77859C20.836 6.67362 20.3971 5.61391 19.6158 4.83258C18.8344 4.05125 17.7747 3.6123 16.6698 3.6123C15.5648 3.6123 14.5051 4.05125 13.7238 4.83258C12.9424 5.61391 12.5035 6.67362 12.5035 7.77859V16.5944C12.5035 17.0638 12.2604 17.4944 11.8938 17.7888C10.6591 18.7782 9.76216 20.1265 9.32682 21.6477C8.89147 23.1688 8.93924 24.7876 9.46351 26.2804C9.98779 27.7732 10.9627 29.0663 12.2536 29.9812C13.5445 30.896 15.0876 31.3874 16.6698 31.3875Z" stroke="#4983F6" stroke-width="2.08314"/>
<path id="Vector_2" d="M20.1417 23.7494C20.1417 24.6702 19.7759 25.5533 19.1248 26.2044C18.4737 26.8555 17.5906 27.2213 16.6698 27.2213C15.749 27.2213 14.8659 26.8555 14.2148 26.2044C13.5637 25.5533 13.1979 24.6702 13.1979 23.7494C13.1979 22.8286 13.5637 21.9455 14.2148 21.2944C14.8659 20.6433 15.749 20.2775 16.6698 20.2775C17.5906 20.2775 18.4737 20.6433 19.1248 21.2944C19.7759 21.9455 20.1417 22.8286 20.1417 23.7494Z" stroke="#4983F6" stroke-width="2.08314"/>
<path id="Vector_3" d="M16.6697 20.2775V7.77869" stroke="#4983F6" stroke-width="2.08314" stroke-linecap="round"/>
</g>
</g>
</svg>
