<svg width="34" height="35" viewBox="0 0 34 35" fill="none" xmlns="http://www.w3.org/2000/svg">
<g id="solar:wind-linear">
<g id="Group">
<path id="Vector" d="M4.39435 12.9331H13.4213C14.108 12.9331 14.7792 12.7294 15.3502 12.3479C15.9211 11.9664 16.3661 11.4242 16.6289 10.7898C16.8917 10.1554 16.9604 9.45731 16.8265 8.78383C16.6925 8.11034 16.3619 7.49171 15.8763 7.00616C15.3907 6.5206 14.7721 6.18994 14.0986 6.05597C13.4251 5.92201 12.7271 5.99076 12.0927 6.25354C11.4582 6.51632 10.916 6.96132 10.5345 7.53228C10.153 8.10323 9.94939 8.77448 9.94939 9.46116V9.95695M5.78311 21.2656H25.9201C26.8815 21.2656 27.8213 21.5507 28.6206 22.0848C29.4199 22.6189 30.0429 23.378 30.4108 24.2662C30.7787 25.1544 30.875 26.1317 30.6874 27.0746C30.4999 28.0174 30.0369 28.8835 29.3572 29.5633C28.6774 30.2431 27.8113 30.706 26.8684 30.8936C25.9255 31.0811 24.9482 30.9849 24.06 30.617C23.1719 30.2491 22.4127 29.6261 21.8786 28.8267C21.3446 28.0274 21.0595 27.0876 21.0595 26.1263V25.4319" stroke="#4983F6" stroke-width="2.08314" stroke-linecap="round"/>
<path id="Vector_2" d="M3.00552 17.0995H25.9201C26.8814 17.0995 27.8212 16.8144 28.6205 16.2803C29.4199 15.7462 30.0429 14.9871 30.4107 14.0989C30.7786 13.2108 30.8749 12.2334 30.6873 11.2906C30.4998 10.3477 30.0369 9.48161 29.3571 8.80183C28.6773 8.12206 27.8112 7.65912 26.8683 7.47157C25.9255 7.28402 24.9482 7.38028 24.06 7.74817C23.1718 8.11606 22.4127 8.73907 21.8786 9.5384C21.3445 10.3377 21.0594 11.2775 21.0594 12.2388V12.9332" stroke="#4983F6" stroke-width="2.08314" stroke-linecap="round"/>
</g>
</g>
</svg>
